# xmcd
#
# Track frame offsets: 
#        150
#        16989
#        28119
#        45806
#        61914
#        79895
#        89571
#        101917
#        113770
#        130428
#        144965
#        160981
#        180612
#        195411
#        209685
#        223283
#        234804
#        249507
#        265345
#        280279
#        303074
#        313935
#        329761
#
# Disc length: 4593 seconds
#
# Revision: 2
# Processed by: cddbd v1.5.2PL0 Copyright (c) Steve Scherf et al.
# Submitted via: ExactAudioCopyFreeDBPlugin 1.0
#
DISCID=5011ef17
DTITLE=Linda Ronstadt - The Very Best Of Linda Ronstadt
DYEAR=2002
DGENRE=Pop
TTITLE0=You're No Good
TTITLE1=It's So Easy
TTITLE2=Blue Bayou
TTITLE3=Don't Know Much (with Aaron Neville)
TTITLE4=Somewhere Out There (with James Ingram)
TTITLE5=When Will I Be Loved
TTITLE6=Heat Wave
TTITLE7=Different Drum (The Stone Poneys)
TTITLE8=Poor Poor Pitiful Me
TTITLE9=Tracks Of My Tears
TTITLE10=After The Gold Rush (with Valerie Carter and Emmylou Harris)
TTITLE11=Long Long Time
TTITLE12=Just One Look
TTITLE13=Heart Like A Wheel
TTITLE14=Back In The U.S.A.
TTITLE15=That'll Be The Day
TTITLE16=Hurt So Bad
TTITLE17=All My Life (with Aaron Neville)
TTITLE18=Ooh Baby Baby
TTITLE19=The Blue Train
TTITLE20=How Do I Make You
TTITLE21=Desperado
TTITLE22=Winter Light
EXTD=
EXTT0=
EXTT1=
EXTT2=
EXTT3=
EXTT4=
EXTT5=
EXTT6=
EXTT7=
EXTT8=
EXTT9=
EXTT10=
EXTT11=
EXTT12=
EXTT13=
EXTT14=
EXTT15=
EXTT16=
EXTT17=
EXTT18=
EXTT19=
EXTT20=
EXTT21=
EXTT22=
PLAYORDER=
